<?xml version="1.0" encoding="utf-8"?>
<!-- Generator: Adobe Illustrator 16.0.0, SVG Export Plug-In . SVG Version: 6.00 Build 0)  -->
<!DOCTYPE svg PUBLIC "-//W3C//DTD SVG 1.1//EN" "http://www.w3.org/Graphics/SVG/1.1/DTD/svg11.dtd">
<svg version="1.1" id="Layer_1" xmlns="http://www.w3.org/2000/svg" xmlns:xlink="http://www.w3.org/1999/xlink" x="0px" y="0px"
	 width="22px" height="22px" viewBox="0 0 22 22" enable-background="new 0 0 22 22" xml:space="preserve">
<path fill="#2BB9B9" d="M19.088,17.978l-5.861-5.861c0.252-0.355,0.459-0.74,0.625-1.147c0.283-0.699,0.428-1.437,0.428-2.194
	c0-0.757-0.145-1.496-0.428-2.194c-0.295-0.724-0.725-1.374-1.283-1.931c-0.554-0.557-1.203-0.986-1.929-1.281
	C9.942,3.085,9.202,2.942,8.446,2.942c-0.758,0-1.494,0.143-2.195,0.426c-0.723,0.295-1.373,0.725-1.93,1.281S3.334,5.856,3.04,6.58
	C2.754,7.278,2.614,8.018,2.614,8.774c0,0.758,0.141,1.495,0.426,2.194c0.295,0.724,0.725,1.374,1.281,1.931s1.207,0.986,1.93,1.281
	c0.701,0.283,1.438,0.426,2.195,0.426c0.756,0,1.496-0.143,2.193-0.426c0.41-0.166,0.793-0.374,1.148-0.625l5.861,5.861
	c0.398,0.398,1.043,0.398,1.439,0C19.486,19.021,19.486,18.376,19.088,17.978z M11.37,11.698c-1.613,1.613-4.236,1.613-5.848,0
	c-1.613-1.612-1.613-4.236,0-5.849c1.611-1.612,4.234-1.612,5.848,0C12.984,7.462,12.984,10.086,11.37,11.698z"/>
</svg>
