<?xml version="1.0" encoding="utf-8"?>
<!-- Generator: Adobe Illustrator 16.0.0, SVG Export Plug-In . SVG Version: 6.00 Build 0)  -->
<!DOCTYPE svg PUBLIC "-//W3C//DTD SVG 1.1//EN" "http://www.w3.org/Graphics/SVG/1.1/DTD/svg11.dtd">
<svg version="1.1" id="Layer_1" xmlns="http://www.w3.org/2000/svg" xmlns:xlink="http://www.w3.org/1999/xlink" x="0px" y="0px"
	 width="222.047px" height="90px" viewBox="0 0 222.047 90" enable-background="new 0 0 222.047 90" xml:space="preserve">
<g>
	<g>
		<path fill="#5E5E5E" d="M19.082,6.02c0.234,0.188,0.455,0.282,0.627,0.282c0.453,0,0.703-0.595,0.828-1.909h0.736
			c-0.094,1.643-0.125,3.849-0.125,7.762h-0.752c-0.344-2.942-0.75-4.491-2.41-5.806c-1.062-1.033-2.535-1.581-4.051-1.581
			c-4.602,0-6.387,5.367-6.387,11.032c0,5.742,1.926,10.953,6.51,10.953c1.41,0,2.959-0.516,3.992-1.549
			c1.658-1.282,2.049-3.067,2.346-6.196h0.752c0,4.068,0.031,6.369,0.125,8.074h-0.736c-0.125-1.314-0.328-1.893-0.781-1.893
			c-0.189,0-0.406,0.094-0.674,0.265c-1.564,1.112-3.16,2.082-5.914,2.082c-6.791,0-11.314-4.272-11.314-11.611
			c0-7.166,4.68-11.986,11.346-11.986C16.015,3.938,17.673,4.939,19.082,6.02z"/>
		<path fill="#5E5E5E" d="M30.142,24.108c0,1.784,0.562,2.3,2.049,2.3v0.674c-0.812-0.031-2.613-0.125-4.271-0.125
			c-1.674,0-3.584,0.094-4.443,0.125v-0.674c1.502,0,2.049-0.516,2.049-2.3V5.848c0-1.925-0.5-2.833-2.049-2.833V2.343
			c0.672,0.062,1.346,0.094,1.986,0.094c1.785,0,3.35-0.126,4.68-0.438L30.142,24.108L30.142,24.108z"/>
		<path fill="#5E5E5E" d="M45.757,11.496c0.938,0.971,1.141,2.254,1.141,4.491v8.716c0,1.033,0.174,1.425,0.689,1.425
			c0.453,0,0.812-0.267,1.174-0.548l0.328,0.548c-0.971,0.782-2.033,1.173-3.66,1.173c-2.348,0-3.068-1.22-3.084-2.598
			c-1.096,1.8-2.926,2.598-4.725,2.598c-2.395,0-4.055-1.314-4.055-3.646c0-2.315,1.535-3.614,4.508-4.71
			c2.363-0.892,4.209-1.502,4.209-2.878v-2.504c0-1.676-0.721-2.864-2.613-2.864c-0.768,0-1.705,0.22-2.285,0.782
			c1.143,0.392,1.895,1.221,1.895,2.52c0,1.33-1.033,2.301-2.613,2.301c-1.393,0-2.27-1.064-2.27-2.473
			c0-1.173,0.752-2.065,1.799-2.676c1.143-0.642,2.707-1.095,4.867-1.095C43.128,10.058,44.724,10.432,45.757,11.496z M42.283,17.38
			c-0.297,0.485-0.908,0.907-1.986,1.58c-1.127,0.83-2.176,1.878-2.176,3.804c0,1.768,0.859,2.487,2.002,2.487
			c0.783,0,1.486-0.345,2.16-1.299V17.38z"/>
		<path fill="#5E5E5E" d="M65.324,23.607c0,1.91,0.5,2.818,2.049,2.818v0.672c-0.672-0.062-1.346-0.094-1.986-0.094
			c-1.785,0-3.35,0.125-4.678,0.438v-2.895c-1.049,2.145-2.959,2.989-5.164,2.989c-1.77,0-2.834-0.517-3.506-1.268
			c-0.705-0.798-0.971-2.034-0.971-4.146V14c0-1.925-0.5-2.832-2.049-2.832v-0.673c0.672,0.062,1.346,0.109,1.986,0.109
			c1.785,0,3.332-0.141,4.68-0.453v13.284c0,1.597,0.312,2.692,1.908,2.692c1.707,0,3.115-1.597,3.115-3.708V14
			c0-1.925-0.502-2.832-2.051-2.832v-0.673c0.672,0.062,1.346,0.109,1.986,0.109c1.785,0,3.35-0.141,4.68-0.453L65.324,23.607
			L65.324,23.607z"/>
		<path fill="#5E5E5E" d="M83.783,23.577c0,1.909,0.5,2.816,2.049,2.816v0.673c-0.672-0.062-1.346-0.094-1.986-0.094
			c-1.785,0-3.334,0.125-4.68,0.438v-2.707c-0.734,1.847-2.08,2.833-4.162,2.833c-3.818,0-6.541-2.707-6.541-8.811
			c0-5.805,3.053-8.668,7.168-8.668c1.455,0,2.676,0.344,3.535,1.204V5.848c0-1.925-0.5-2.833-2.049-2.833V2.343
			c0.672,0.062,1.346,0.094,1.986,0.094c1.801,0,3.35-0.126,4.68-0.438V23.577z M79.166,23.451v-11.39
			c-0.578-0.752-1.424-1.081-2.332-1.081c-2.205,0-3.535,2.52-3.52,7.809c-0.016,5.478,1.174,7.354,3.02,7.354
			C77.648,26.143,78.869,25.142,79.166,23.451z"/>
		<path fill="#5E5E5E" d="M94.111,24.108c0,1.784,0.549,2.3,2.051,2.3v0.674c-0.814-0.031-2.613-0.125-4.287-0.125
			c-1.66,0-3.584,0.094-4.43,0.125v-0.674c1.488,0,2.051-0.516,2.051-2.3V14c0-1.925-0.502-2.832-2.051-2.832v-0.673
			c0.674,0.062,1.346,0.109,1.988,0.109c1.783,0,3.332-0.141,4.678-0.453V24.108z M94.503,4.705c0,1.55-1.143,2.488-2.91,2.488
			c-1.801,0-2.928-0.938-2.928-2.488c0-1.534,1.127-2.473,2.928-2.473C93.361,2.232,94.503,3.171,94.503,4.705z"/>
		<path fill="#5E5E5E" d="M109.722,11.496c0.938,0.971,1.141,2.254,1.141,4.491v8.716c0,1.033,0.172,1.425,0.689,1.425
			c0.453,0,0.813-0.267,1.175-0.548l0.328,0.548c-0.972,0.782-2.035,1.173-3.664,1.173c-2.348,0-3.066-1.22-3.082-2.598
			c-1.096,1.8-2.926,2.598-4.727,2.598c-2.395,0-4.053-1.314-4.053-3.646c0-2.315,1.533-3.614,4.508-4.71
			c2.361-0.892,4.209-1.502,4.209-2.878v-2.504c0-1.676-0.721-2.864-2.613-2.864c-0.768,0-1.705,0.22-2.285,0.782
			c1.143,0.392,1.895,1.221,1.895,2.52c0,1.33-1.033,2.301-2.613,2.301c-1.393,0-2.27-1.064-2.27-2.473
			c0-1.173,0.75-2.065,1.799-2.676c1.143-0.642,2.707-1.095,4.867-1.095C107.093,10.058,108.689,10.432,109.722,11.496z
			 M106.248,17.38c-0.297,0.485-0.908,0.907-1.988,1.58c-1.125,0.83-2.174,1.878-2.174,3.804c0,1.768,0.859,2.487,2.002,2.487
			c0.783,0,1.486-0.345,2.16-1.299V17.38z"/>
		<path fill="#5E5E5E" d="M144.709,15.55c0,7.167-4.695,11.986-11.346,11.986c-6.791,0-11.312-4.272-11.312-11.611
			c0-7.166,4.678-11.986,11.344-11.986C140.172,3.938,144.709,8.211,144.709,15.55z M127.371,15.8
			c0,6.823,2.738,11.157,6.117,11.157c3.584,0,5.9-4.647,5.9-11.282c0-6.822-2.738-11.157-6.136-11.157
			C129.67,4.518,127.371,9.165,127.371,15.8z"/>
		<path fill="#5E5E5E" d="M152.691,24.108c0,1.784,0.562,2.3,2.049,2.3v0.674c-0.812-0.031-2.611-0.125-4.271-0.125
			c-1.674,0-3.584,0.094-4.443,0.125v-0.674c1.502,0,2.05-0.516,2.05-2.3V5.848c0-1.925-0.5-2.833-2.05-2.833V2.343
			c0.673,0.062,1.347,0.094,1.986,0.094c1.785,0,3.35-0.126,4.68-0.438V24.108L152.691,24.108z"/>
		<path fill="#5E5E5E" d="M167.885,22.982c2.332,0,4.334,0.829,4.334,3.443c0,3.082-2.91,6.681-9.279,6.681
			c-4.834,0-7.104-1.237-7.104-2.769c0-2.035,3.145-1.91,4.852-3.084h-0.752c-1.221,0-3.584-0.422-3.584-2.973
			c0-1.815,1.033-3.067,4.084-4.507c-2.143-0.704-3.52-2.206-3.52-4.616c0-3.536,2.941-5.101,6.885-5.101
			c0.846,0,1.658,0.077,2.395,0.218c-0.032-0.531,0-1.063,0.109-1.58c0.203-1.675,1.127-2.957,3.035-2.957
			c1.361,0,2.332,0.751,2.332,1.956c0,1.079-0.939,1.862-2.191,1.862c-1.36,0-1.985-0.674-2.395-1.8
			c-0.219,0.375-0.375,0.923-0.469,1.627c-0.016,0.156-0.016,0.313-0.016,0.47c0,0.172,0,0.344,0.016,0.517
			c2.457,0.626,4.084,2.159,4.084,4.788c0,3.521-2.957,5.102-6.9,5.102c-1.002,0-1.939-0.094-2.77-0.313
			c-1.08,0.642-1.832,1.157-1.832,1.973c0,0.734,0.455,1.063,1.314,1.063H167.885z M168.652,28.584c0-0.86-0.394-1.33-1.849-1.33
			h-5.508c-0.752,0.721-1.096,1.847-1.096,2.535c0,1.83,1.582,2.77,3.6,2.77C166.383,32.559,168.652,31.104,168.652,28.584z
			 M161.656,15.158c0,3.427,0.813,4.522,2.145,4.522s2.146-1.096,2.146-4.522c0-3.428-0.814-4.522-2.146-4.522
			S161.656,11.73,161.656,15.158z"/>
		<path fill="#5E5E5E" d="M188.613,23.607c0,1.91,0.5,2.818,2.049,2.818v0.672c-0.672-0.062-1.346-0.094-1.986-0.094
			c-1.785,0-3.35,0.125-4.68,0.438v-2.895c-1.047,2.145-2.957,2.989-5.162,2.989c-1.77,0-2.834-0.517-3.506-1.268
			c-0.705-0.798-0.971-2.034-0.971-4.146V14c0-1.925-0.5-2.832-2.049-2.832v-0.673c0.672,0.062,1.346,0.109,1.985,0.109
			c1.783,0,3.332-0.141,4.679-0.453v13.284c0,1.597,0.313,2.692,1.909,2.692c1.705,0,3.113-1.597,3.113-3.708V14
			c0-1.925-0.5-2.832-2.049-2.832v-0.673c0.672,0.062,1.346,0.109,1.985,0.109c1.783,0,3.351-0.141,4.68-0.453v13.456H188.613z"/>
		<path fill="#5E5E5E" d="M198.959,24.108c0,1.784,0.549,2.3,2.051,2.3v0.674c-0.812-0.031-2.613-0.125-4.287-0.125
			c-1.658,0-3.584,0.094-4.43,0.125v-0.674c1.488,0,2.051-0.516,2.051-2.3V14c0-1.925-0.5-2.832-2.051-2.832v-0.673
			c0.674,0.062,1.348,0.109,1.988,0.109c1.783,0,3.334-0.141,4.678-0.453V24.108z M200.635,2.123c0,0.423-0.156,0.892-0.502,1.314
			c-1.031,1.268-2.582,1.847-5.414,4.443l-0.344-0.28c1.895-3.428,1.957-5.086,3.037-6.369c0.391-0.485,0.953-0.751,1.533-0.751
			c0.391,0,0.781,0.125,1.109,0.407C200.447,1.2,200.635,1.639,200.635,2.123z"/>
		<path fill="#5E5E5E" d="M218.07,11.309c0.705,0.813,1.004,1.987,1.004,4.163v8.637c0,1.784,0.562,2.3,2.049,2.3v0.674
			c-0.812-0.031-2.66-0.125-4.225-0.125c-1.644,0-3.381,0.094-4.164,0.125v-0.674c1.27,0,1.723-0.516,1.723-2.3v-9.968
			c0-1.596-0.375-2.676-1.973-2.676c-1.799,0-3.176,1.597-3.176,3.709v8.935c0,1.784,0.455,2.3,1.721,2.3v0.674
			c-0.75-0.031-2.408-0.125-3.976-0.125c-1.643,0-3.565,0.094-4.411,0.125v-0.674c1.485,0,2.049-0.516,2.049-2.3V14
			c0-1.925-0.5-2.832-2.049-2.832v-0.673c0.672,0.062,1.346,0.109,1.987,0.109c1.783,0,3.332-0.141,4.679-0.453v2.895
			c1.063-2.176,2.973-2.988,5.227-2.988C216.365,10.058,217.414,10.558,218.07,11.309z"/>
	</g>
	<g>
		<g>
			<path fill="#5E5E5E" d="M58.335,35.498c-0.68,0.029-0.811,0.133-0.811,0.859v4.961c0,0.729,0.131,0.83,0.811,0.859v0.201
				c-0.309-0.02-0.811-0.029-1.27-0.029c-0.518,0-1.002,0.01-1.279,0.029v-0.201c0.678-0.029,0.811-0.131,0.811-0.859v-4.961
				c0-0.727-0.133-0.83-0.811-0.859v-0.199c0.277,0.02,0.762,0.029,1.279,0.029c0.459,0,0.961-0.01,1.27-0.029V35.498z"/>
			<path fill="#5E5E5E" d="M69.261,35.498c-0.68,0.029-0.811,0.23-0.811,0.963v5.967h-0.23l-4.199-6.49v5.279
				c0,0.732,0.133,0.932,0.908,0.961v0.201c-0.238-0.02-0.678-0.029-1.02-0.029c-0.338,0-0.709,0.01-0.928,0.029v-0.201
				c0.678-0.029,0.811-0.229,0.811-0.961v-4.859c0-0.727-0.133-0.83-0.811-0.859V35.3c0.219,0.02,0.59,0.029,0.928,0.029
				c0.293,0,0.561-0.01,0.781-0.029l3.529,5.439v-4.277c0-0.732-0.127-0.934-0.908-0.963V35.3c0.24,0.02,0.68,0.029,1.021,0.029
				c0.336,0,0.707-0.01,0.928-0.029L69.261,35.498L69.261,35.498z"/>
			<path fill="#5E5E5E" d="M79.369,36.578c0,0.322,0.01,0.609,0.029,0.82h-0.229c-0.143-1.393-0.289-1.871-1.539-1.871h-0.541v5.689
				c0,0.811,0.17,0.932,1.01,0.961v0.201c-0.352-0.02-0.928-0.029-1.469-0.029c-0.602,0-1.162,0.01-1.48,0.029v-0.201
				c0.84-0.029,1.012-0.15,1.012-0.961v-5.689h-0.543c-1.25,0-1.4,0.479-1.537,1.871h-0.23c0.02-0.211,0.029-0.498,0.029-0.82
				c0-0.25-0.02-0.771-0.072-1.279c0.83,0.029,2.002,0.029,2.822,0.029c0.82,0,1.977,0,2.807-0.029
				C79.388,35.807,79.369,36.328,79.369,36.578z"/>
			<path fill="#5E5E5E" d="M89.208,42.379c-0.678-0.029-1.621-0.029-2.289-0.029c-0.602,0-1.92,0-2.9,0.029v-0.201
				c0.678-0.029,0.811-0.131,0.811-0.859v-4.961c0-0.727-0.133-0.83-0.811-0.859V35.3c0.98,0.029,2.299,0.029,2.9,0.029
				c0.609,0,1.469,0,2.09-0.029c-0.049,0.469-0.068,0.951-0.068,1.182c0,0.238,0.01,0.469,0.029,0.619H88.74
				c-0.131-1.182-0.283-1.572-1.342-1.572h-0.83c-0.68,0-0.811,0.104-0.811,0.83v2.359h0.664c0.869,0,0.85-0.84,0.928-1.318h0.229
				c-0.029,0.424-0.033,0.713-0.033,0.941c0,0.186,0.004,0.332,0.004,0.479c0,0.328,0.01,0.66,0.059,1.422h-0.229
				c-0.078-0.641-0.088-1.324-0.957-1.324h-0.664v2.402c0,0.729,0.131,0.83,0.811,0.83H87.3c1.25,0,1.498-0.449,1.641-1.771h0.229
				c-0.02,0.18-0.029,0.443-0.029,0.723C89.14,41.348,89.16,41.871,89.208,42.379z"/>
			<path fill="#5E5E5E" d="M96.437,35.498c-0.678,0.029-0.811,0.133-0.811,0.859v4.961c0,0.729,0.133,0.83,0.811,0.83h0.732
				c1.25,0,1.5-0.479,1.641-1.869h0.23c-0.02,0.209-0.029,0.498-0.029,0.82c0,0.248,0.021,0.771,0.068,1.279
				c-0.68-0.029-1.621-0.029-2.291-0.029c-0.6,0-1.918,0-2.9,0.029v-0.201c0.68-0.029,0.811-0.131,0.811-0.859v-4.961
				c0-0.727-0.131-0.83-0.811-0.859v-0.199c0.279,0.02,0.762,0.029,1.279,0.029c0.459,0,0.963-0.01,1.27-0.029V35.498z"/>
			<path fill="#5E5E5E" d="M106.201,35.498c-0.678,0.029-0.811,0.133-0.811,0.859v4.961c0,0.729,0.133,0.83,0.811,0.83h0.732
				c1.25,0,1.5-0.479,1.641-1.869h0.23c-0.02,0.209-0.029,0.498-0.029,0.82c0,0.248,0.02,0.771,0.068,1.279
				c-0.68-0.029-1.621-0.029-2.291-0.029c-0.6,0-1.918,0-2.9,0.029v-0.201c0.68-0.029,0.811-0.131,0.811-0.859v-4.961
				c0-0.727-0.131-0.83-0.811-0.859v-0.199c0.279,0.02,0.762,0.029,1.279,0.029c0.459,0,0.963-0.01,1.27-0.029V35.498z"/>
			<path fill="#5E5E5E" d="M115.965,35.498c-0.68,0.029-0.811,0.133-0.811,0.859v4.961c0,0.729,0.131,0.83,0.811,0.859v0.201
				c-0.309-0.02-0.811-0.029-1.27-0.029c-0.519,0-1.002,0.01-1.279,0.029v-0.201c0.678-0.029,0.811-0.131,0.811-0.859v-4.961
				c0-0.727-0.133-0.83-0.811-0.859v-0.199c0.277,0.02,0.762,0.029,1.279,0.029c0.459,0,0.961-0.01,1.27-0.029V35.498z"/>
			<path fill="#5E5E5E" d="M125.457,35.807c0.078,0.062,0.137,0.102,0.201,0.102c0.127,0,0.209-0.189,0.248-0.609h0.229
				c-0.028,0.488-0.038,1.137-0.038,2.299h-0.23c-0.092-0.561-0.189-1.098-0.502-1.479c-0.391-0.488-1.061-0.781-1.729-0.781
				c-1.327,0-2.202,1.361-2.202,3.51c0,2.402,0.752,3.473,2.383,3.473c0.479,0,0.84-0.172,1.041-0.312
				c0.248-0.172,0.287-0.299,0.287-0.547V40.5c0-0.811-0.17-0.928-1.011-0.961v-0.201c0.353,0.025,0.961,0.035,1.41,0.035
				c0.438,0,0.802-0.01,1.041-0.035v0.201c-0.438,0.033-0.508,0.121-0.508,0.859v1.982h-0.201c-0.01-0.23-0.103-0.572-0.272-0.572
				c-0.078,0-0.127,0.02-0.326,0.172c-0.439,0.332-0.914,0.541-1.562,0.541c-2.07,0-3.277-1.332-3.277-3.559
				c0-2.334,1.357-3.805,3.22-3.805C124.525,35.156,124.984,35.469,125.457,35.807z"/>
			<path fill="#5E5E5E" d="M136.168,42.379c-0.678-0.029-1.621-0.029-2.289-0.029c-0.602,0-1.92,0-2.9,0.029v-0.201
				c0.679-0.029,0.812-0.131,0.812-0.859v-4.961c0-0.727-0.133-0.83-0.812-0.859V35.3c0.98,0.029,2.299,0.029,2.9,0.029
				c0.609,0,1.469,0,2.09-0.029c-0.049,0.469-0.068,0.951-0.068,1.182c0,0.238,0.011,0.469,0.029,0.619H135.7
				c-0.132-1.182-0.283-1.572-1.343-1.572h-0.83c-0.68,0-0.811,0.104-0.811,0.83v2.359h0.664c0.869,0,0.85-0.84,0.928-1.318h0.229
				c-0.029,0.424-0.033,0.713-0.033,0.941c0,0.186,0.004,0.332,0.004,0.479c0,0.328,0.011,0.66,0.06,1.422h-0.229
				c-0.078-0.641-0.088-1.324-0.957-1.324h-0.664v2.402c0,0.729,0.132,0.83,0.812,0.83h0.731c1.25,0,1.498-0.449,1.642-1.771h0.229
				c-0.02,0.18-0.029,0.443-0.029,0.723C136.1,41.348,136.119,41.871,136.168,42.379z"/>
			<path fill="#5E5E5E" d="M147.129,35.498c-0.68,0.029-0.811,0.23-0.811,0.963v5.967h-0.23l-4.199-6.49v5.279
				c0,0.732,0.133,0.932,0.908,0.961v0.201c-0.238-0.02-0.678-0.029-1.02-0.029c-0.338,0-0.709,0.01-0.928,0.029v-0.201
				c0.678-0.029,0.811-0.229,0.811-0.961v-4.859c0-0.727-0.133-0.83-0.811-0.859V35.3c0.219,0.02,0.59,0.029,0.928,0.029
				c0.293,0,0.561-0.01,0.781-0.029l3.528,5.439v-4.277c0-0.732-0.127-0.934-0.907-0.963V35.3c0.239,0.02,0.68,0.029,1.021,0.029
				c0.336,0,0.707-0.01,0.928-0.029L147.129,35.498L147.129,35.498z"/>
			<path fill="#5E5E5E" d="M156.553,35.807c0.072,0.059,0.137,0.088,0.195,0.088c0.137,0,0.219-0.186,0.254-0.596h0.229
				c-0.028,0.488-0.039,1.137-0.039,2.299h-0.229c-0.143-0.85-0.221-1.117-0.504-1.479c-0.42-0.543-1.078-0.781-1.768-0.781
				c-1.303,0-2.162,1.352-2.162,3.52c0,2.232,0.971,3.463,2.26,3.463c0.602,0,1.334-0.221,1.709-0.762
				c0.293-0.391,0.361-0.771,0.465-1.582h0.229c0,1.211,0.011,1.895,0.039,2.402h-0.229c-0.035-0.41-0.104-0.592-0.244-0.592
				c-0.055,0-0.123,0.029-0.205,0.084c-0.494,0.346-0.992,0.648-1.852,0.648c-1.898,0-3.168-1.332-3.168-3.623
				c0-2.236,1.318-3.74,3.178-3.74C155.59,35.156,156.113,35.469,156.553,35.807z"/>
			<path fill="#5E5E5E" d="M167.191,42.379c-0.681-0.029-1.621-0.029-2.291-0.029c-0.601,0-1.918,0-2.9,0.029v-0.201
				c0.68-0.029,0.811-0.131,0.811-0.859v-4.961c0-0.727-0.131-0.83-0.811-0.859V35.3c0.982,0.029,2.301,0.029,2.9,0.029
				c0.61,0,1.471,0,2.09-0.029c-0.049,0.469-0.068,0.951-0.068,1.182c0,0.238,0.01,0.469,0.029,0.619h-0.229
				c-0.134-1.182-0.283-1.572-1.345-1.572h-0.83c-0.678,0-0.812,0.104-0.812,0.83v2.359h0.664c0.869,0,0.851-0.84,0.929-1.318h0.229
				c-0.029,0.424-0.035,0.713-0.035,0.941c0,0.186,0.006,0.332,0.006,0.479c0,0.328,0.011,0.66,0.06,1.422h-0.229
				c-0.078-0.641-0.088-1.324-0.957-1.324h-0.664v2.402c0,0.729,0.133,0.83,0.811,0.83h0.732c1.25,0,1.5-0.449,1.641-1.771h0.23
				c-0.021,0.18-0.029,0.443-0.029,0.723C167.123,41.348,167.143,41.871,167.191,42.379z"/>
		</g>
	</g>
</g>
<g>
	<g>
		<path fill="#5E5E5E" d="M19.042,51.228c0.234,0.188,0.455,0.282,0.627,0.282c0.453,0,0.703-0.595,0.828-1.909h0.736
			c-0.094,1.644-0.125,3.851-0.125,7.763h-0.752c-0.344-2.941-0.75-4.491-2.41-5.806c-1.062-1.033-2.535-1.582-4.051-1.582
			c-4.602,0-6.387,5.367-6.387,11.032c0,5.743,1.926,10.953,6.51,10.953c1.41,0,2.959-0.517,3.992-1.549
			c1.658-1.282,2.049-3.067,2.346-6.196h0.752c0,4.068,0.031,6.369,0.125,8.074h-0.736c-0.125-1.314-0.328-1.893-0.781-1.893
			c-0.189,0-0.406,0.094-0.674,0.265c-1.564,1.112-3.16,2.082-5.914,2.082c-6.791,0-11.314-4.272-11.314-11.61
			c0-7.167,4.68-11.986,11.346-11.986C15.976,49.146,17.634,50.147,19.042,51.228z"/>
		<path fill="#5E5E5E" d="M30.103,69.315c0,1.785,0.562,2.301,2.049,2.301v0.674c-0.812-0.031-2.613-0.125-4.271-0.125
			c-1.674,0-3.584,0.094-4.443,0.125v-0.674c1.502,0,2.049-0.516,2.049-2.301v-18.26c0-1.925-0.5-2.832-2.049-2.832v-0.672
			c0.672,0.062,1.346,0.094,1.986,0.094c1.785,0,3.35-0.127,4.68-0.438L30.103,69.315L30.103,69.315z"/>
		<path fill="#5E5E5E" d="M45.718,56.704c0.938,0.971,1.141,2.254,1.141,4.49v8.717c0,1.033,0.174,1.425,0.689,1.425
			c0.453,0,0.812-0.267,1.174-0.548l0.328,0.548c-0.971,0.782-2.033,1.173-3.66,1.173c-2.348,0-3.068-1.22-3.084-2.598
			c-1.096,1.8-2.926,2.598-4.725,2.598c-2.395,0-4.055-1.314-4.055-3.646c0-2.314,1.535-3.614,4.508-4.71
			c2.363-0.893,4.209-1.502,4.209-2.879v-2.504c0-1.676-0.721-2.862-2.613-2.862c-0.768,0-1.705,0.219-2.285,0.78
			c1.143,0.393,1.896,1.222,1.896,2.521c0,1.33-1.033,2.301-2.613,2.301c-1.393,0-2.27-1.063-2.27-2.473
			c0-1.173,0.752-2.063,1.799-2.677c1.143-0.641,2.707-1.094,4.867-1.094C43.089,55.267,44.685,55.64,45.718,56.704z M42.243,62.589
			c-0.297,0.484-0.908,0.906-1.986,1.58c-1.127,0.829-2.176,1.877-2.176,3.803c0,1.769,0.859,2.487,2.002,2.487
			c0.783,0,1.486-0.345,2.16-1.299V62.589z"/>
		<path fill="#5E5E5E" d="M65.284,68.815c0,1.91,0.5,2.817,2.049,2.817v0.673c-0.672-0.062-1.346-0.095-1.986-0.095
			c-1.785,0-3.35,0.125-4.678,0.438v-2.896c-1.049,2.146-2.959,2.989-5.164,2.989c-1.77,0-2.834-0.518-3.506-1.268
			c-0.705-0.799-0.971-2.035-0.971-4.146v-8.121c0-1.924-0.5-2.832-2.049-2.832v-0.673c0.672,0.063,1.346,0.11,1.986,0.11
			c1.785,0,3.332-0.143,4.68-0.455v13.285c0,1.597,0.312,2.691,1.908,2.691c1.707,0,3.115-1.597,3.115-3.708v-8.419
			c0-1.924-0.502-2.832-2.051-2.832v-0.673c0.672,0.063,1.346,0.11,1.986,0.11c1.785,0,3.35-0.143,4.68-0.455L65.284,68.815
			L65.284,68.815z"/>
		<path fill="#5E5E5E" d="M83.743,68.785c0,1.909,0.5,2.815,2.049,2.815v0.674c-0.672-0.062-1.346-0.094-1.986-0.094
			c-1.785,0-3.334,0.125-4.68,0.438v-2.707c-0.734,1.847-2.08,2.833-4.162,2.833c-3.818,0-6.541-2.707-6.541-8.81
			c0-5.807,3.053-8.67,7.168-8.67c1.455,0,2.676,0.346,3.535,1.204v-5.413c0-1.926-0.5-2.832-2.049-2.832v-0.673
			c0.672,0.062,1.346,0.093,1.986,0.093c1.801,0,3.35-0.125,4.68-0.438V68.785z M79.126,68.659V57.269
			c-0.578-0.752-1.424-1.08-2.332-1.08c-2.205,0-3.535,2.521-3.52,7.81c-0.016,5.478,1.174,7.354,3.02,7.354
			C77.608,71.351,78.829,70.351,79.126,68.659z"/>
		<path fill="#5E5E5E" d="M94.071,69.315c0,1.785,0.549,2.301,2.051,2.301v0.674c-0.814-0.031-2.613-0.125-4.287-0.125
			c-1.66,0-3.584,0.094-4.43,0.125v-0.674c1.488,0,2.051-0.516,2.051-2.301V59.208c0-1.924-0.502-2.832-2.051-2.832v-0.673
			c0.674,0.063,1.346,0.11,1.988,0.11c1.783,0,3.332-0.143,4.678-0.455V69.315z M94.464,49.913c0,1.55-1.143,2.488-2.91,2.488
			c-1.801,0-2.928-0.938-2.928-2.488c0-1.533,1.127-2.473,2.928-2.473C93.321,47.44,94.464,48.38,94.464,49.913z"/>
		<path fill="#5E5E5E" d="M109.683,56.704c0.938,0.971,1.141,2.254,1.141,4.49v8.717c0,1.033,0.172,1.425,0.689,1.425
			c0.453,0,0.812-0.267,1.174-0.548l0.328,0.548c-0.972,0.782-2.034,1.173-3.663,1.173c-2.348,0-3.066-1.22-3.082-2.598
			c-1.096,1.8-2.926,2.598-4.727,2.598c-2.395,0-4.053-1.314-4.053-3.646c0-2.314,1.533-3.614,4.508-4.71
			c2.361-0.893,4.209-1.502,4.209-2.879v-2.504c0-1.676-0.721-2.862-2.613-2.862c-0.768,0-1.705,0.219-2.285,0.78
			c1.143,0.393,1.895,1.222,1.895,2.521c0,1.33-1.033,2.301-2.613,2.301c-1.393,0-2.27-1.063-2.27-2.473
			c0-1.173,0.75-2.063,1.799-2.677c1.143-0.641,2.707-1.094,4.867-1.094C107.054,55.267,108.649,55.64,109.683,56.704z
			 M106.208,62.589c-0.297,0.484-0.908,0.906-1.988,1.58c-1.125,0.829-2.174,1.877-2.174,3.803c0,1.769,0.859,2.487,2.002,2.487
			c0.783,0,1.486-0.345,2.16-1.299V62.589z"/>
		<path fill="#5E5E5E" d="M144.669,60.758c0,7.167-4.694,11.986-11.346,11.986c-6.791,0-11.312-4.272-11.312-11.61
			c0-7.167,4.679-11.986,11.345-11.986C140.132,49.146,144.669,53.419,144.669,60.758z M127.331,61.008
			c0,6.823,2.737,11.157,6.117,11.157c3.584,0,5.899-4.646,5.899-11.282c0-6.821-2.738-11.157-6.135-11.157
			C129.63,49.726,127.331,54.373,127.331,61.008z"/>
		<path fill="#5E5E5E" d="M152.65,69.315c0,1.785,0.562,2.301,2.05,2.301v0.674c-0.812-0.031-2.611-0.125-4.271-0.125
			c-1.675,0-3.585,0.094-4.443,0.125v-0.674c1.502,0,2.049-0.516,2.049-2.301v-18.26c0-1.925-0.5-2.832-2.049-2.832v-0.672
			c0.672,0.062,1.346,0.094,1.986,0.094c1.784,0,3.35-0.127,4.68-0.438v22.108H152.65z"/>
		<path fill="#5E5E5E" d="M167.845,68.19c2.332,0,4.335,0.828,4.335,3.442c0,3.082-2.91,6.681-9.279,6.681
			c-4.834,0-7.104-1.236-7.104-2.769c0-2.035,3.146-1.91,4.853-3.084h-0.752c-1.222,0-3.584-0.422-3.584-2.973
			c0-1.815,1.032-3.067,4.084-4.507c-2.144-0.705-3.521-2.207-3.521-4.616c0-3.536,2.94-5.101,6.885-5.101
			c0.847,0,1.658,0.076,2.396,0.217c-0.033-0.53,0-1.062,0.109-1.58c0.202-1.674,1.127-2.957,3.034-2.957
			c1.361,0,2.332,0.752,2.332,1.957c0,1.078-0.938,1.861-2.19,1.861c-1.361,0-1.986-0.674-2.396-1.8
			c-0.219,0.375-0.375,0.923-0.469,1.627c-0.017,0.157-0.017,0.313-0.017,0.47c0,0.172,0,0.344,0.017,0.518
			c2.457,0.626,4.084,2.158,4.084,4.788c0,3.521-2.957,5.102-6.9,5.102c-1.002,0-1.938-0.094-2.77-0.313
			c-1.08,0.643-1.832,1.158-1.832,1.974c0,0.733,0.455,1.063,1.313,1.063H167.845z M168.611,73.792c0-0.859-0.393-1.33-1.848-1.33
			h-5.508c-0.752,0.721-1.096,1.848-1.096,2.535c0,1.83,1.582,2.77,3.6,2.77C166.343,77.767,168.611,76.312,168.611,73.792z
			 M161.616,60.366c0,3.427,0.813,4.521,2.145,4.521s2.146-1.096,2.146-4.521c0-3.428-0.814-4.522-2.146-4.522
			S161.616,56.938,161.616,60.366z"/>
		<path fill="#5E5E5E" d="M188.573,68.815c0,1.91,0.5,2.817,2.049,2.817v0.673c-0.672-0.062-1.347-0.095-1.986-0.095
			c-1.784,0-3.35,0.125-4.68,0.438v-2.896c-1.047,2.146-2.957,2.989-5.162,2.989c-1.771,0-2.834-0.518-3.506-1.268
			c-0.705-0.799-0.972-2.035-0.972-4.146v-8.121c0-1.924-0.5-2.832-2.049-2.832v-0.673c0.672,0.063,1.347,0.11,1.986,0.11
			c1.783,0,3.332-0.143,4.678-0.455v13.285c0,1.597,0.314,2.691,1.91,2.691c1.705,0,3.113-1.597,3.113-3.708v-8.419
			c0-1.924-0.5-2.832-2.049-2.832v-0.673c0.672,0.063,1.346,0.11,1.986,0.11c1.782,0,3.35-0.143,4.68-0.455L188.573,68.815
			L188.573,68.815z"/>
		<path fill="#5E5E5E" d="M198.919,69.315c0,1.785,0.549,2.301,2.051,2.301v0.674c-0.812-0.031-2.612-0.125-4.286-0.125
			c-1.658,0-3.584,0.094-4.431,0.125v-0.674c1.488,0,2.052-0.516,2.052-2.301V59.208c0-1.924-0.5-2.832-2.052-2.832v-0.673
			c0.674,0.063,1.349,0.11,1.988,0.11c1.782,0,3.334-0.143,4.678-0.455V69.315z M200.595,47.331c0,0.424-0.155,0.893-0.502,1.314
			c-1.03,1.268-2.582,1.848-5.413,4.442l-0.345-0.28c1.896-3.428,1.957-5.086,3.037-6.369c0.392-0.484,0.953-0.75,1.533-0.75
			c0.391,0,0.78,0.125,1.108,0.406C200.407,46.409,200.595,46.847,200.595,47.331z"/>
		<path fill="#5E5E5E" d="M218.03,56.517c0.704,0.814,1.004,1.988,1.004,4.164v8.637c0,1.783,0.562,2.3,2.049,2.3v0.674
			c-0.812-0.031-2.66-0.125-4.226-0.125c-1.643,0-3.381,0.094-4.164,0.125v-0.674c1.271,0,1.724-0.517,1.724-2.3v-9.969
			c0-1.596-0.375-2.676-1.974-2.676c-1.799,0-3.176,1.598-3.176,3.709v8.936c0,1.783,0.455,2.3,1.722,2.3v0.674
			c-0.75-0.031-2.408-0.125-3.976-0.125c-1.643,0-3.565,0.094-4.412,0.125v-0.674c1.486,0,2.049-0.517,2.049-2.3V59.208
			c0-1.924-0.5-2.832-2.049-2.832v-0.673c0.672,0.063,1.347,0.11,1.988,0.11c1.783,0,3.332-0.143,4.678-0.455v2.896
			c1.064-2.175,2.974-2.987,5.228-2.987C216.325,55.267,217.374,55.767,218.03,56.517z"/>
	</g>
	<g>
		<g>
			<path fill="#2BB9B9" d="M58.296,80.706c-0.68,0.029-0.811,0.133-0.811,0.859v4.961c0,0.729,0.131,0.83,0.811,0.858v0.201
				c-0.309-0.021-0.811-0.028-1.27-0.028c-0.518,0-1.002,0.01-1.279,0.028v-0.201c0.678-0.028,0.811-0.131,0.811-0.858v-4.961
				c0-0.728-0.133-0.83-0.811-0.859v-0.199c0.277,0.02,0.762,0.029,1.279,0.029c0.459,0,0.961-0.01,1.27-0.029V80.706z"/>
			<path fill="#2BB9B9" d="M69.222,80.706c-0.68,0.029-0.811,0.23-0.811,0.963v5.967h-0.23l-4.199-6.49v5.279
				c0,0.732,0.133,0.932,0.908,0.961v0.201c-0.238-0.02-0.678-0.029-1.02-0.029c-0.338,0-0.709,0.01-0.928,0.029v-0.201
				c0.678-0.029,0.811-0.229,0.811-0.961v-4.859c0-0.727-0.133-0.83-0.811-0.858v-0.199c0.219,0.021,0.59,0.029,0.928,0.029
				c0.293,0,0.561-0.011,0.781-0.029l3.529,5.439V81.67c0-0.731-0.127-0.935-0.908-0.963v-0.199c0.24,0.021,0.68,0.029,1.021,0.029
				c0.336,0,0.707-0.011,0.928-0.029L69.222,80.706L69.222,80.706z"/>
			<path fill="#2BB9B9" d="M79.329,81.786c0,0.322,0.01,0.609,0.029,0.82H79.13c-0.143-1.394-0.289-1.871-1.539-1.871H77.05v5.688
				c0,0.812,0.17,0.933,1.01,0.961v0.201c-0.352-0.021-0.928-0.028-1.469-0.028c-0.602,0-1.162,0.01-1.48,0.028v-0.201
				c0.84-0.028,1.012-0.149,1.012-0.961v-5.688H75.58c-1.25,0-1.4,0.479-1.537,1.871h-0.23c0.02-0.211,0.029-0.498,0.029-0.82
				c0-0.25-0.02-0.771-0.072-1.279c0.83,0.029,2.002,0.029,2.822,0.029c0.82,0,1.977,0,2.807-0.029
				C79.349,81.015,79.329,81.536,79.329,81.786z"/>
			<path fill="#2BB9B9" d="M89.169,87.587c-0.678-0.029-1.621-0.029-2.289-0.029c-0.602,0-1.92,0-2.9,0.029v-0.201
				c0.678-0.029,0.811-0.131,0.811-0.859v-4.961c0-0.727-0.133-0.83-0.811-0.858v-0.199c0.98,0.029,2.299,0.029,2.9,0.029
				c0.609,0,1.469,0,2.09-0.029c-0.049,0.47-0.068,0.951-0.068,1.183c0,0.237,0.01,0.469,0.029,0.619H88.7
				c-0.131-1.183-0.283-1.572-1.342-1.572h-0.83c-0.68,0-0.811,0.104-0.811,0.83v2.358h0.664c0.869,0,0.85-0.84,0.928-1.317h0.229
				c-0.029,0.424-0.033,0.713-0.033,0.94c0,0.187,0.004,0.332,0.004,0.479c0,0.328,0.01,0.66,0.059,1.422h-0.229
				c-0.078-0.641-0.088-1.324-0.957-1.324h-0.664v2.402c0,0.729,0.131,0.83,0.811,0.83h0.732c1.25,0,1.498-0.449,1.641-1.771h0.229
				c-0.02,0.18-0.029,0.443-0.029,0.723C89.101,86.556,89.12,87.079,89.169,87.587z"/>
			<path fill="#2BB9B9" d="M96.397,80.706c-0.678,0.029-0.811,0.133-0.811,0.859v4.961c0,0.729,0.133,0.83,0.811,0.83h0.732
				c1.25,0,1.5-0.479,1.641-1.869H99c-0.02,0.209-0.029,0.498-0.029,0.82c0,0.248,0.02,0.771,0.068,1.278
				c-0.68-0.028-1.621-0.028-2.291-0.028c-0.6,0-1.918,0-2.9,0.028v-0.201c0.68-0.028,0.811-0.131,0.811-0.858v-4.961
				c0-0.728-0.131-0.83-0.811-0.859v-0.199c0.279,0.02,0.762,0.029,1.279,0.029c0.459,0,0.963-0.01,1.27-0.029V80.706z"/>
			<path fill="#2BB9B9" d="M106.161,80.706c-0.678,0.029-0.811,0.133-0.811,0.859v4.961c0,0.729,0.133,0.83,0.811,0.83h0.732
				c1.25,0,1.5-0.479,1.641-1.869h0.23c-0.02,0.209-0.029,0.498-0.029,0.82c0,0.248,0.02,0.771,0.068,1.278
				c-0.68-0.028-1.621-0.028-2.291-0.028c-0.6,0-1.918,0-2.9,0.028v-0.201c0.68-0.028,0.811-0.131,0.811-0.858v-4.961
				c0-0.728-0.131-0.83-0.811-0.859v-0.199c0.279,0.02,0.762,0.029,1.279,0.029c0.459,0,0.963-0.01,1.27-0.029V80.706z"/>
			<path fill="#2BB9B9" d="M115.925,80.706c-0.68,0.029-0.811,0.133-0.811,0.859v4.961c0,0.729,0.131,0.83,0.811,0.858v0.201
				c-0.309-0.021-0.811-0.028-1.27-0.028c-0.519,0-1.003,0.01-1.279,0.028v-0.201c0.679-0.028,0.812-0.131,0.812-0.858v-4.961
				c0-0.728-0.133-0.83-0.812-0.859v-0.199c0.276,0.02,0.763,0.029,1.279,0.029c0.459,0,0.961-0.01,1.27-0.029V80.706z"/>
			<path fill="#2BB9B9" d="M125.417,81.015c0.078,0.062,0.138,0.103,0.201,0.103c0.127,0,0.209-0.189,0.248-0.609h0.229
				c-0.029,0.488-0.039,1.138-0.039,2.3h-0.229c-0.093-0.562-0.188-1.099-0.502-1.479c-0.392-0.488-1.062-0.781-1.729-0.781
				c-1.328,0-2.203,1.361-2.203,3.511c0,2.401,0.752,3.473,2.383,3.473c0.479,0,0.841-0.172,1.041-0.312
				c0.248-0.172,0.287-0.299,0.287-0.547v-0.963c0-0.811-0.17-0.928-1.01-0.961v-0.201c0.352,0.025,0.961,0.035,1.41,0.035
				c0.439,0,0.801-0.01,1.041-0.035v0.201c-0.439,0.033-0.508,0.121-0.508,0.859v1.981h-0.201c-0.01-0.229-0.102-0.571-0.273-0.571
				c-0.078,0-0.127,0.02-0.326,0.172c-0.438,0.332-0.913,0.541-1.562,0.541c-2.069,0-3.276-1.332-3.276-3.56
				c0-2.334,1.356-3.805,3.219-3.805C124.484,80.364,124.943,80.677,125.417,81.015z"/>
			<path fill="#2BB9B9" d="M136.128,87.587c-0.678-0.029-1.621-0.029-2.289-0.029c-0.603,0-1.92,0-2.899,0.029v-0.201
				c0.678-0.029,0.811-0.131,0.811-0.859v-4.961c0-0.727-0.133-0.83-0.811-0.858v-0.199c0.979,0.029,2.299,0.029,2.899,0.029
				c0.609,0,1.47,0,2.091-0.029c-0.05,0.47-0.068,0.951-0.068,1.183c0,0.237,0.01,0.469,0.029,0.619h-0.23
				c-0.131-1.183-0.283-1.572-1.342-1.572h-0.83c-0.68,0-0.812,0.104-0.812,0.83v2.358h0.664c0.869,0,0.851-0.84,0.929-1.317h0.229
				c-0.029,0.424-0.033,0.713-0.033,0.94c0,0.187,0.004,0.332,0.004,0.479c0,0.328,0.01,0.66,0.059,1.422h-0.229
				c-0.078-0.641-0.088-1.324-0.957-1.324h-0.664v2.402c0,0.729,0.131,0.83,0.812,0.83h0.731c1.25,0,1.498-0.449,1.641-1.771h0.229
				c-0.02,0.18-0.028,0.443-0.028,0.723C136.061,86.556,136.079,87.079,136.128,87.587z"/>
			<path fill="#2BB9B9" d="M147.089,80.706c-0.68,0.029-0.812,0.23-0.812,0.963v5.967h-0.229l-4.198-6.49v5.279
				c0,0.732,0.133,0.932,0.907,0.961v0.201c-0.237-0.02-0.678-0.029-1.021-0.029c-0.338,0-0.709,0.01-0.928,0.029v-0.201
				c0.678-0.029,0.812-0.229,0.812-0.961v-4.859c0-0.727-0.134-0.83-0.812-0.858v-0.199c0.219,0.021,0.59,0.029,0.928,0.029
				c0.294,0,0.562-0.011,0.781-0.029l3.529,5.439V81.67c0-0.731-0.127-0.935-0.908-0.963v-0.199c0.24,0.021,0.68,0.029,1.021,0.029
				c0.336,0,0.707-0.011,0.928-0.029L147.089,80.706L147.089,80.706z"/>
			<path fill="#2BB9B9" d="M156.514,81.015c0.071,0.06,0.137,0.088,0.194,0.088c0.137,0,0.219-0.186,0.254-0.596h0.229
				c-0.029,0.488-0.039,1.137-0.039,2.299h-0.229c-0.143-0.85-0.221-1.117-0.504-1.479c-0.42-0.543-1.078-0.781-1.769-0.781
				c-1.303,0-2.161,1.352-2.161,3.52c0,2.232,0.971,3.463,2.26,3.463c0.603,0,1.334-0.221,1.709-0.762
				c0.293-0.391,0.36-0.771,0.465-1.582h0.229c0,1.211,0.01,1.896,0.039,2.402h-0.229c-0.035-0.41-0.104-0.592-0.244-0.592
				c-0.055,0-0.123,0.029-0.204,0.084c-0.494,0.346-0.992,0.648-1.853,0.648c-1.897,0-3.168-1.332-3.168-3.623
				c0-2.236,1.317-3.74,3.178-3.74C155.55,80.364,156.073,80.677,156.514,81.015z"/>
			<path fill="#2BB9B9" d="M167.15,87.587c-0.68-0.029-1.62-0.029-2.291-0.029c-0.6,0-1.918,0-2.899,0.029v-0.201
				c0.681-0.029,0.812-0.131,0.812-0.859v-4.961c0-0.727-0.131-0.83-0.812-0.858v-0.199c0.981,0.029,2.301,0.029,2.899,0.029
				c0.611,0,1.472,0,2.091-0.029c-0.05,0.47-0.068,0.951-0.068,1.183c0,0.237,0.011,0.469,0.029,0.619h-0.229
				c-0.133-1.183-0.283-1.572-1.344-1.572h-0.83c-0.678,0-0.811,0.104-0.811,0.83v2.358h0.664c0.869,0,0.85-0.84,0.928-1.317h0.23
				c-0.029,0.424-0.035,0.713-0.035,0.94c0,0.187,0.006,0.332,0.006,0.479c0,0.328,0.01,0.66,0.059,1.422h-0.23
				c-0.077-0.641-0.088-1.324-0.957-1.324h-0.663v2.402c0,0.729,0.133,0.83,0.811,0.83h0.732c1.25,0,1.5-0.449,1.641-1.771h0.229
				c-0.02,0.18-0.028,0.443-0.028,0.723C167.083,86.556,167.104,87.079,167.15,87.587z"/>
		</g>
	</g>
</g>
</svg>
