<?xml version="1.0" encoding="utf-8"?>
<!-- Generator: Adobe Illustrator 16.0.0, SVG Export Plug-In . SVG Version: 6.00 Build 0)  -->
<!DOCTYPE svg PUBLIC "-//W3C//DTD SVG 1.1//EN" "http://www.w3.org/Graphics/SVG/1.1/DTD/svg11.dtd">
<svg version="1.1" id="Layer_1" xmlns="http://www.w3.org/2000/svg" xmlns:xlink="http://www.w3.org/1999/xlink" x="0px" y="0px"
	 width="947px" height="29px" viewBox="0 0 947 29" enable-background="new 0 0 947 29" xml:space="preserve">
<g>
	<defs>
		<rect id="SVGID_1_" width="947" height="29"/>
	</defs>
	<clipPath id="SVGID_2_">
		<use xlink:href="#SVGID_1_"  overflow="visible"/>
	</clipPath>
	<g clip-path="url(#SVGID_2_)">
		<line fill="none" stroke="#2BB9B9" stroke-width="3" stroke-miterlimit="10" x1="-58.5" y1="59" x2="266.5" y2="-266"/>
		
			<line fill="none" stroke="#2BB9B9" stroke-width="2.959" stroke-miterlimit="10" x1="-51.631" y1="60.164" x2="273.369" y2="-264.836"/>
		
			<line fill="none" stroke="#2BB9B9" stroke-width="2.918" stroke-miterlimit="10" x1="-44.762" y1="61.328" x2="280.238" y2="-263.672"/>
		
			<line fill="none" stroke="#2BB9B9" stroke-width="2.877" stroke-miterlimit="10" x1="-37.894" y1="62.491" x2="287.106" y2="-262.508"/>
		
			<line fill="none" stroke="#2BB9B9" stroke-width="2.8361" stroke-miterlimit="10" x1="-31.024" y1="63.655" x2="293.976" y2="-261.344"/>
		
			<line fill="none" stroke="#2BB9B9" stroke-width="2.7951" stroke-miterlimit="10" x1="-24.155" y1="64.82" x2="300.845" y2="-260.18"/>
		
			<line fill="none" stroke="#2BB9B9" stroke-width="2.7541" stroke-miterlimit="10" x1="-17.287" y1="65.983" x2="307.713" y2="-259.017"/>
		
			<line fill="none" stroke="#2BB9B9" stroke-width="2.7131" stroke-miterlimit="10" x1="-10.417" y1="67.147" x2="314.582" y2="-257.853"/>
		
			<line fill="none" stroke="#2BB9B9" stroke-width="2.6721" stroke-miterlimit="10" x1="-3.549" y1="68.312" x2="321.451" y2="-256.688"/>
		
			<line fill="none" stroke="#2BB9B9" stroke-width="2.6311" stroke-miterlimit="10" x1="3.32" y1="69.476" x2="328.32" y2="-255.524"/>
		
			<line fill="none" stroke="#2BB9B9" stroke-width="2.5902" stroke-miterlimit="10" x1="10.188" y1="70.64" x2="335.188" y2="-254.36"/>
		
			<line fill="none" stroke="#2BB9B9" stroke-width="2.5492" stroke-miterlimit="10" x1="17.058" y1="71.804" x2="342.058" y2="-253.197"/>
		
			<line fill="none" stroke="#2BB9B9" stroke-width="2.5082" stroke-miterlimit="10" x1="23.926" y1="72.967" x2="348.926" y2="-252.033"/>
		
			<line fill="none" stroke="#2BB9B9" stroke-width="2.4672" stroke-miterlimit="10" x1="30.795" y1="74.131" x2="355.795" y2="-250.869"/>
		
			<line fill="none" stroke="#2BB9B9" stroke-width="2.4262" stroke-miterlimit="10" x1="37.664" y1="75.295" x2="362.664" y2="-249.705"/>
		
			<line fill="none" stroke="#2BB9B9" stroke-width="2.3852" stroke-miterlimit="10" x1="44.533" y1="76.459" x2="369.533" y2="-248.541"/>
		
			<line fill="none" stroke="#2BB9B9" stroke-width="2.3443" stroke-miterlimit="10" x1="51.402" y1="77.623" x2="376.402" y2="-247.377"/>
		
			<line fill="none" stroke="#2BB9B9" stroke-width="2.3033" stroke-miterlimit="10" x1="58.271" y1="78.787" x2="383.271" y2="-246.213"/>
		
			<line fill="none" stroke="#2BB9B9" stroke-width="2.2623" stroke-miterlimit="10" x1="65.14" y1="79.95" x2="390.14" y2="-245.05"/>
		
			<line fill="none" stroke="#2BB9B9" stroke-width="2.2213" stroke-miterlimit="10" x1="72.008" y1="81.115" x2="397.008" y2="-243.885"/>
		
			<line fill="none" stroke="#2BB9B9" stroke-width="2.1803" stroke-miterlimit="10" x1="78.877" y1="82.279" x2="403.877" y2="-242.721"/>
		
			<line fill="none" stroke="#2BB9B9" stroke-width="2.1393" stroke-miterlimit="10" x1="85.746" y1="83.443" x2="410.746" y2="-241.558"/>
		
			<line fill="none" stroke="#2BB9B9" stroke-width="2.0984" stroke-miterlimit="10" x1="92.615" y1="84.606" x2="417.614" y2="-240.394"/>
		
			<line fill="none" stroke="#2BB9B9" stroke-width="2.0574" stroke-miterlimit="10" x1="99.484" y1="85.771" x2="424.483" y2="-239.229"/>
		
			<line fill="none" stroke="#2BB9B9" stroke-width="2.0164" stroke-miterlimit="10" x1="106.353" y1="86.935" x2="431.353" y2="-238.065"/>
		
			<line fill="none" stroke="#2BB9B9" stroke-width="1.9754" stroke-miterlimit="10" x1="113.222" y1="88.099" x2="438.222" y2="-236.901"/>
		
			<line fill="none" stroke="#2BB9B9" stroke-width="1.9344" stroke-miterlimit="10" x1="120.09" y1="89.262" x2="445.09" y2="-235.738"/>
		
			<line fill="none" stroke="#2BB9B9" stroke-width="1.8934" stroke-miterlimit="10" x1="126.959" y1="90.427" x2="451.959" y2="-234.574"/>
		
			<line fill="none" stroke="#2BB9B9" stroke-width="1.8525" stroke-miterlimit="10" x1="133.829" y1="91.59" x2="458.828" y2="-233.409"/>
		
			<line fill="none" stroke="#2BB9B9" stroke-width="1.8115" stroke-miterlimit="10" x1="140.697" y1="92.754" x2="465.697" y2="-232.246"/>
		
			<line fill="none" stroke="#2BB9B9" stroke-width="1.7705" stroke-miterlimit="10" x1="147.565" y1="93.918" x2="472.565" y2="-231.082"/>
		
			<line fill="none" stroke="#2BB9B9" stroke-width="1.7295" stroke-miterlimit="10" x1="154.435" y1="95.082" x2="479.435" y2="-229.918"/>
		
			<line fill="none" stroke="#2BB9B9" stroke-width="1.6885" stroke-miterlimit="10" x1="161.304" y1="96.246" x2="486.304" y2="-228.754"/>
		
			<line fill="none" stroke="#2BB9B9" stroke-width="1.6475" stroke-miterlimit="10" x1="168.172" y1="97.41" x2="493.173" y2="-227.59"/>
		
			<line fill="none" stroke="#2BB9B9" stroke-width="1.6066" stroke-miterlimit="10" x1="175.041" y1="98.574" x2="500.041" y2="-226.427"/>
		
			<line fill="none" stroke="#2BB9B9" stroke-width="1.5656" stroke-miterlimit="10" x1="181.91" y1="99.737" x2="506.91" y2="-225.263"/>
		
			<line fill="none" stroke="#2BB9B9" stroke-width="1.5246" stroke-miterlimit="10" x1="188.779" y1="100.902" x2="513.778" y2="-224.099"/>
		
			<line fill="none" stroke="#2BB9B9" stroke-width="1.4836" stroke-miterlimit="10" x1="195.647" y1="102.065" x2="520.648" y2="-222.935"/>
		
			<line fill="none" stroke="#2BB9B9" stroke-width="1.4426" stroke-miterlimit="10" x1="202.517" y1="103.229" x2="527.517" y2="-221.771"/>
		
			<line fill="none" stroke="#2BB9B9" stroke-width="1.4016" stroke-miterlimit="10" x1="209.386" y1="104.394" x2="534.385" y2="-220.606"/>
		
			<line fill="none" stroke="#2BB9B9" stroke-width="1.3607" stroke-miterlimit="10" x1="216.254" y1="105.558" x2="541.254" y2="-219.442"/>
		
			<line fill="none" stroke="#2BB9B9" stroke-width="1.3197" stroke-miterlimit="10" x1="223.123" y1="106.722" x2="548.123" y2="-218.278"/>
		
			<line fill="none" stroke="#2BB9B9" stroke-width="1.2787" stroke-miterlimit="10" x1="229.992" y1="107.885" x2="554.992" y2="-217.114"/>
		
			<line fill="none" stroke="#2BB9B9" stroke-width="1.2377" stroke-miterlimit="10" x1="236.861" y1="109.049" x2="561.861" y2="-215.951"/>
		
			<line fill="none" stroke="#2BB9B9" stroke-width="1.1967" stroke-miterlimit="10" x1="243.729" y1="110.213" x2="568.729" y2="-214.787"/>
		
			<line fill="none" stroke="#2BB9B9" stroke-width="1.1557" stroke-miterlimit="10" x1="250.599" y1="111.377" x2="575.599" y2="-213.623"/>
		
			<line fill="none" stroke="#2BB9B9" stroke-width="1.1148" stroke-miterlimit="10" x1="257.467" y1="112.541" x2="582.467" y2="-212.459"/>
		
			<line fill="none" stroke="#2BB9B9" stroke-width="1.0738" stroke-miterlimit="10" x1="264.336" y1="113.705" x2="589.336" y2="-211.295"/>
		
			<line fill="none" stroke="#2BB9B9" stroke-width="1.0328" stroke-miterlimit="10" x1="271.205" y1="114.869" x2="596.205" y2="-210.131"/>
		
			<line fill="none" stroke="#2BB9B9" stroke-width="0.9918" stroke-miterlimit="10" x1="278.074" y1="116.033" x2="603.074" y2="-208.967"/>
		
			<line fill="none" stroke="#2BB9B9" stroke-width="0.9508" stroke-miterlimit="10" x1="284.943" y1="117.197" x2="609.943" y2="-207.803"/>
		
			<line fill="none" stroke="#2BB9B9" stroke-width="0.9098" stroke-miterlimit="10" x1="291.812" y1="118.36" x2="616.812" y2="-206.639"/>
		
			<line fill="none" stroke="#2BB9B9" stroke-width="0.8689" stroke-miterlimit="10" x1="298.68" y1="119.524" x2="623.681" y2="-205.476"/>
		
			<line fill="none" stroke="#2BB9B9" stroke-width="0.8279" stroke-miterlimit="10" x1="305.549" y1="120.688" x2="630.55" y2="-204.312"/>
		
			<line fill="none" stroke="#2BB9B9" stroke-width="0.7869" stroke-miterlimit="10" x1="312.418" y1="121.853" x2="637.418" y2="-203.147"/>
		
			<line fill="none" stroke="#2BB9B9" stroke-width="0.7459" stroke-miterlimit="10" x1="319.287" y1="123.017" x2="644.287" y2="-201.983"/>
		
			<line fill="none" stroke="#2BB9B9" stroke-width="0.7049" stroke-miterlimit="10" x1="326.156" y1="124.181" x2="651.155" y2="-200.82"/>
		
			<line fill="none" stroke="#2BB9B9" stroke-width="0.6639" stroke-miterlimit="10" x1="333.025" y1="125.345" x2="658.024" y2="-199.656"/>
		
			<line fill="none" stroke="#2BB9B9" stroke-width="0.623" stroke-miterlimit="10" x1="339.893" y1="126.508" x2="664.894" y2="-198.492"/>
		
			<line fill="none" stroke="#2BB9B9" stroke-width="0.582" stroke-miterlimit="10" x1="346.762" y1="127.672" x2="671.762" y2="-197.328"/>
		
			<line fill="none" stroke="#2BB9B9" stroke-width="0.541" stroke-miterlimit="10" x1="353.631" y1="128.836" x2="678.631" y2="-196.164"/>
		<line fill="none" stroke="#2BB9B9" stroke-width="0.5" stroke-miterlimit="10" x1="360.5" y1="130" x2="685.5" y2="-195"/>
		
			<line fill="none" stroke="#2BB9B9" stroke-width="0.541" stroke-miterlimit="10" x1="365.303" y1="133.197" x2="690.303" y2="-191.803"/>
		
			<line fill="none" stroke="#2BB9B9" stroke-width="0.582" stroke-miterlimit="10" x1="370.106" y1="136.394" x2="695.106" y2="-188.606"/>
		
			<line fill="none" stroke="#2BB9B9" stroke-width="0.623" stroke-miterlimit="10" x1="374.91" y1="139.59" x2="699.91" y2="-185.41"/>
		
			<line fill="none" stroke="#2BB9B9" stroke-width="0.6639" stroke-miterlimit="10" x1="379.713" y1="142.787" x2="704.714" y2="-182.213"/>
		
			<line fill="none" stroke="#2BB9B9" stroke-width="0.7049" stroke-miterlimit="10" x1="384.517" y1="145.984" x2="709.517" y2="-179.016"/>
		
			<line fill="none" stroke="#2BB9B9" stroke-width="0.7459" stroke-miterlimit="10" x1="389.32" y1="149.181" x2="714.319" y2="-175.819"/>
		
			<line fill="none" stroke="#2BB9B9" stroke-width="0.7869" stroke-miterlimit="10" x1="394.123" y1="152.377" x2="719.123" y2="-172.623"/>
		
			<line fill="none" stroke="#2BB9B9" stroke-width="0.8279" stroke-miterlimit="10" x1="398.926" y1="155.574" x2="723.927" y2="-169.426"/>
		
			<line fill="none" stroke="#2BB9B9" stroke-width="0.8689" stroke-miterlimit="10" x1="403.729" y1="158.771" x2="728.729" y2="-166.229"/>
		
			<line fill="none" stroke="#2BB9B9" stroke-width="0.9098" stroke-miterlimit="10" x1="408.533" y1="161.967" x2="733.533" y2="-163.033"/>
		
			<line fill="none" stroke="#2BB9B9" stroke-width="0.9508" stroke-miterlimit="10" x1="413.336" y1="165.164" x2="738.336" y2="-159.836"/>
		
			<line fill="none" stroke="#2BB9B9" stroke-width="0.9918" stroke-miterlimit="10" x1="418.139" y1="168.36" x2="743.139" y2="-156.64"/>
		
			<line fill="none" stroke="#2BB9B9" stroke-width="1.0328" stroke-miterlimit="10" x1="422.942" y1="171.558" x2="747.942" y2="-153.443"/>
		
			<line fill="none" stroke="#2BB9B9" stroke-width="1.0738" stroke-miterlimit="10" x1="427.746" y1="174.754" x2="752.746" y2="-150.246"/>
		
			<line fill="none" stroke="#2BB9B9" stroke-width="1.1148" stroke-miterlimit="10" x1="432.55" y1="177.951" x2="757.549" y2="-147.049"/>
		
			<line fill="none" stroke="#2BB9B9" stroke-width="1.1557" stroke-miterlimit="10" x1="437.353" y1="181.148" x2="762.354" y2="-143.852"/>
		
			<line fill="none" stroke="#2BB9B9" stroke-width="1.1967" stroke-miterlimit="10" x1="442.156" y1="184.344" x2="767.156" y2="-140.655"/>
		
			<line fill="none" stroke="#2BB9B9" stroke-width="1.2377" stroke-miterlimit="10" x1="446.959" y1="187.541" x2="771.959" y2="-137.459"/>
		
			<line fill="none" stroke="#2BB9B9" stroke-width="1.2787" stroke-miterlimit="10" x1="451.762" y1="190.738" x2="776.763" y2="-134.262"/>
		
			<line fill="none" stroke="#2BB9B9" stroke-width="1.3197" stroke-miterlimit="10" x1="456.565" y1="193.935" x2="781.566" y2="-131.065"/>
		
			<line fill="none" stroke="#2BB9B9" stroke-width="1.3607" stroke-miterlimit="10" x1="461.369" y1="197.131" x2="786.369" y2="-127.869"/>
		
			<line fill="none" stroke="#2BB9B9" stroke-width="1.4016" stroke-miterlimit="10" x1="466.172" y1="200.328" x2="791.172" y2="-124.672"/>
		
			<line fill="none" stroke="#2BB9B9" stroke-width="1.4426" stroke-miterlimit="10" x1="470.976" y1="203.524" x2="795.976" y2="-121.476"/>
		
			<line fill="none" stroke="#2BB9B9" stroke-width="1.4836" stroke-miterlimit="10" x1="475.779" y1="206.722" x2="800.779" y2="-118.278"/>
		
			<line fill="none" stroke="#2BB9B9" stroke-width="1.5246" stroke-miterlimit="10" x1="480.582" y1="209.918" x2="805.582" y2="-115.082"/>
		
			<line fill="none" stroke="#2BB9B9" stroke-width="1.5656" stroke-miterlimit="10" x1="485.385" y1="213.114" x2="810.385" y2="-111.885"/>
		
			<line fill="none" stroke="#2BB9B9" stroke-width="1.6066" stroke-miterlimit="10" x1="490.189" y1="216.312" x2="815.188" y2="-108.688"/>
		
			<line fill="none" stroke="#2BB9B9" stroke-width="1.6475" stroke-miterlimit="10" x1="494.992" y1="219.508" x2="819.992" y2="-105.491"/>
		
			<line fill="none" stroke="#2BB9B9" stroke-width="1.6885" stroke-miterlimit="10" x1="499.795" y1="222.705" x2="824.795" y2="-102.295"/>
		
			<line fill="none" stroke="#2BB9B9" stroke-width="1.7295" stroke-miterlimit="10" x1="504.598" y1="225.902" x2="829.598" y2="-99.099"/>
		
			<line fill="none" stroke="#2BB9B9" stroke-width="1.7705" stroke-miterlimit="10" x1="509.402" y1="229.098" x2="834.402" y2="-95.901"/>
		
			<line fill="none" stroke="#2BB9B9" stroke-width="1.8115" stroke-miterlimit="10" x1="514.205" y1="232.295" x2="839.205" y2="-92.705"/>
		
			<line fill="none" stroke="#2BB9B9" stroke-width="1.8525" stroke-miterlimit="10" x1="519.009" y1="235.492" x2="844.009" y2="-89.508"/>
		
			<line fill="none" stroke="#2BB9B9" stroke-width="1.8934" stroke-miterlimit="10" x1="523.812" y1="238.688" x2="848.812" y2="-86.312"/>
		
			<line fill="none" stroke="#2BB9B9" stroke-width="1.9344" stroke-miterlimit="10" x1="528.615" y1="241.885" x2="853.615" y2="-83.114"/>
		
			<line fill="none" stroke="#2BB9B9" stroke-width="1.9754" stroke-miterlimit="10" x1="533.418" y1="245.082" x2="858.418" y2="-79.918"/>
		
			<line fill="none" stroke="#2BB9B9" stroke-width="2.0164" stroke-miterlimit="10" x1="538.221" y1="248.279" x2="863.222" y2="-76.721"/>
		
			<line fill="none" stroke="#2BB9B9" stroke-width="2.0574" stroke-miterlimit="10" x1="543.024" y1="251.476" x2="868.025" y2="-73.524"/>
		
			<line fill="none" stroke="#2BB9B9" stroke-width="2.0984" stroke-miterlimit="10" x1="547.828" y1="254.672" x2="872.828" y2="-70.328"/>
		
			<line fill="none" stroke="#2BB9B9" stroke-width="2.1393" stroke-miterlimit="10" x1="552.631" y1="257.869" x2="877.631" y2="-67.131"/>
		
			<line fill="none" stroke="#2BB9B9" stroke-width="2.1803" stroke-miterlimit="10" x1="557.435" y1="261.065" x2="882.435" y2="-63.935"/>
		
			<line fill="none" stroke="#2BB9B9" stroke-width="2.2213" stroke-miterlimit="10" x1="562.238" y1="264.262" x2="887.237" y2="-60.737"/>
		
			<line fill="none" stroke="#2BB9B9" stroke-width="2.2623" stroke-miterlimit="10" x1="567.041" y1="267.459" x2="892.041" y2="-57.541"/>
		
			<line fill="none" stroke="#2BB9B9" stroke-width="2.3033" stroke-miterlimit="10" x1="571.845" y1="270.656" x2="896.844" y2="-54.344"/>
		
			<line fill="none" stroke="#2BB9B9" stroke-width="2.3443" stroke-miterlimit="10" x1="576.647" y1="273.853" x2="901.648" y2="-51.147"/>
		
			<line fill="none" stroke="#2BB9B9" stroke-width="2.3852" stroke-miterlimit="10" x1="581.451" y1="277.049" x2="906.451" y2="-47.951"/>
		
			<line fill="none" stroke="#2BB9B9" stroke-width="2.4262" stroke-miterlimit="10" x1="586.254" y1="280.246" x2="911.254" y2="-44.754"/>
		
			<line fill="none" stroke="#2BB9B9" stroke-width="2.4672" stroke-miterlimit="10" x1="591.058" y1="283.442" x2="916.058" y2="-41.557"/>
		
			<line fill="none" stroke="#2BB9B9" stroke-width="2.5082" stroke-miterlimit="10" x1="595.861" y1="286.64" x2="920.86" y2="-38.36"/>
		
			<line fill="none" stroke="#2BB9B9" stroke-width="2.5492" stroke-miterlimit="10" x1="600.664" y1="289.836" x2="925.664" y2="-35.164"/>
		
			<line fill="none" stroke="#2BB9B9" stroke-width="2.5902" stroke-miterlimit="10" x1="605.468" y1="293.032" x2="930.467" y2="-31.967"/>
		
			<line fill="none" stroke="#2BB9B9" stroke-width="2.6311" stroke-miterlimit="10" x1="610.271" y1="296.229" x2="935.271" y2="-28.771"/>
		
			<line fill="none" stroke="#2BB9B9" stroke-width="2.6721" stroke-miterlimit="10" x1="615.073" y1="299.426" x2="940.074" y2="-25.574"/>
		
			<line fill="none" stroke="#2BB9B9" stroke-width="2.7131" stroke-miterlimit="10" x1="619.877" y1="302.623" x2="944.877" y2="-22.377"/>
		
			<line fill="none" stroke="#2BB9B9" stroke-width="2.7541" stroke-miterlimit="10" x1="624.68" y1="305.819" x2="949.681" y2="-19.181"/>
		
			<line fill="none" stroke="#2BB9B9" stroke-width="2.7951" stroke-miterlimit="10" x1="629.483" y1="309.017" x2="954.483" y2="-15.983"/>
		
			<line fill="none" stroke="#2BB9B9" stroke-width="2.8361" stroke-miterlimit="10" x1="634.287" y1="312.213" x2="959.287" y2="-12.787"/>
		
			<line fill="none" stroke="#2BB9B9" stroke-width="2.877" stroke-miterlimit="10" x1="639.09" y1="315.41" x2="964.09" y2="-9.59"/>
		
			<line fill="none" stroke="#2BB9B9" stroke-width="2.918" stroke-miterlimit="10" x1="643.894" y1="318.606" x2="968.894" y2="-6.394"/>
		
			<line fill="none" stroke="#2BB9B9" stroke-width="2.959" stroke-miterlimit="10" x1="648.697" y1="321.804" x2="973.697" y2="-3.197"/>
		<line fill="none" stroke="#2BB9B9" stroke-width="3" stroke-miterlimit="10" x1="653.5" y1="325" x2="978.5" y2="0"/>
	</g>
</g>
</svg>
