<?xml version="1.0" encoding="utf-8"?>
<!-- Generator: Adobe Illustrator 16.0.0, SVG Export Plug-In . SVG Version: 6.00 Build 0)  -->
<!DOCTYPE svg PUBLIC "-//W3C//DTD SVG 1.1//EN" "http://www.w3.org/Graphics/SVG/1.1/DTD/svg11.dtd">
<svg version="1.1" id="Layer_1" xmlns="http://www.w3.org/2000/svg" xmlns:xlink="http://www.w3.org/1999/xlink" x="0px" y="0px"
	 width="40px" height="40px" viewBox="0 0 40 40" enable-background="new 0 0 40 40" xml:space="preserve">
<g>
	<g enable-background="new    ">
		<path fill="#2BB9B9" d="M16.693,7.302c0,0.117,0,0.263,0,0.408c0,4.692-3.527,10.026-9.968,10.026
			c-1.981,0-3.818-0.583-5.392-1.604c0.262,0.029,0.554,0.029,0.845,0.029c1.632,0,3.147-0.524,4.343-1.486
			c-1.545-0.029-2.827-1.049-3.264-2.448c0.233,0.059,0.408,0.088,0.641,0.088c0.35,0,0.641-0.059,0.933-0.117
			c-1.603-0.35-2.827-1.748-2.827-3.438c0,0,0,0,0-0.029C2.47,8.964,2.995,9.139,3.636,9.139c-0.991-0.612-1.574-1.69-1.574-2.915
			c0-0.67,0.175-1.253,0.466-1.777c1.749,2.156,4.313,3.556,7.228,3.672C9.698,7.885,9.669,7.594,9.669,7.36
			c0-1.952,1.574-3.556,3.497-3.556c1.049,0,1.924,0.438,2.565,1.107c0.787-0.116,1.574-0.466,2.244-0.815
			c-0.292,0.786-0.816,1.457-1.545,1.923c0.729-0.087,1.399-0.291,2.011-0.554C17.975,6.137,17.363,6.777,16.693,7.302z"/>
	</g>
</g>
<g>
	<g enable-background="new    ">
		<path fill="#1F8E8B" d="M16.693,27.302c0,0.117,0,0.263,0,0.408c0,4.692-3.527,10.026-9.968,10.026
			c-1.981,0-3.818-0.583-5.392-1.604c0.262,0.029,0.554,0.029,0.845,0.029c1.632,0,3.147-0.524,4.343-1.486
			c-1.545-0.029-2.827-1.049-3.264-2.448c0.233,0.059,0.408,0.088,0.641,0.088c0.35,0,0.641-0.059,0.933-0.117
			c-1.603-0.35-2.827-1.748-2.827-3.438c0,0,0,0,0-0.029c0.466,0.233,0.991,0.408,1.632,0.408c-0.991-0.612-1.574-1.69-1.574-2.915
			c0-0.67,0.175-1.253,0.466-1.777c1.749,2.156,4.313,3.556,7.228,3.672c-0.059-0.233-0.087-0.524-0.087-0.758
			c0-1.952,1.574-3.556,3.497-3.556c1.049,0,1.924,0.438,2.565,1.107c0.787-0.116,1.574-0.466,2.244-0.815
			c-0.292,0.786-0.816,1.457-1.545,1.923c0.729-0.087,1.399-0.291,2.011-0.554C17.975,26.137,17.363,26.777,16.693,27.302z"/>
	</g>
</g>
<g>
	<g>
		<path fill="#2BB9B9" d="M24.92,2.936c0.512,0,0.941,0.181,1.295,0.542c0.352,0.361,0.528,0.797,0.528,1.308
			c0,0.511-0.177,0.942-0.528,1.294c-0.354,0.353-0.783,0.528-1.295,0.528c-0.511,0-0.938-0.176-1.281-0.528
			s-0.515-0.783-0.515-1.294c0-0.51,0.171-0.946,0.515-1.308S24.409,2.936,24.92,2.936z M23.439,17.914V7.69h2.959v10.223
			L23.439,17.914L23.439,17.914z M30.784,7.69v0.476c0.563-0.281,1.196-0.405,1.901-0.37c0.705,0.036,1.338,0.194,1.901,0.476
			c0.599,0.334,1.079,0.819,1.44,1.453c0.359,0.634,0.541,1.285,0.541,1.955v6.233h-2.905V11.68c0-0.141-0.054-0.309-0.159-0.502
			c-0.105-0.194-0.22-0.309-0.343-0.344c-0.3-0.158-0.591-0.221-0.872-0.186c-0.282,0.036-0.537,0.105-0.766,0.212
			c-0.266,0.123-0.512,0.29-0.74,0.502v6.551h-2.958V7.69H30.784z"/>
	</g>
</g>
<g>
	<g>
		<path fill="#1F8E8B" d="M24.92,23.021c0.512,0,0.941,0.183,1.295,0.543c0.352,0.36,0.528,0.797,0.528,1.308
			c0,0.512-0.177,0.942-0.528,1.295c-0.354,0.353-0.783,0.526-1.295,0.526c-0.511,0-0.938-0.176-1.281-0.526
			c-0.344-0.353-0.515-0.783-0.515-1.295c0-0.511,0.171-0.946,0.515-1.308C23.982,23.204,24.409,23.021,24.92,23.021z M23.439,38
			V27.777h2.959V38H23.439z M30.784,27.777v0.476c0.563-0.28,1.196-0.403,1.901-0.369c0.705,0.035,1.338,0.193,1.901,0.476
			c0.599,0.336,1.079,0.82,1.44,1.453c0.359,0.635,0.541,1.287,0.541,1.955V38h-2.905v-6.232c0-0.142-0.054-0.31-0.159-0.504
			c-0.105-0.193-0.22-0.308-0.343-0.343c-0.3-0.159-0.591-0.22-0.872-0.185c-0.282,0.035-0.537,0.104-0.766,0.211
			c-0.266,0.123-0.512,0.291-0.74,0.502V38h-2.958V27.777H30.784z"/>
	</g>
</g>
</svg>
